<?xml version="1.0" encoding="UTF-8"?>
<svg viewBox="0 0 1440 320" xmlns="http://www.w3.org/2000/svg" preserveAspectRatio="none">
  <path fill="#7f5af0" fill-opacity="0.3" d="M0,64L48,90.7C96,117,192,171,288,181.3C384,192,480,160,576,154.7C672,149,768,171,864,181.3C960,192,1056,192,1152,165.3C1248,139,1344,85,1392,58.7L1440,32L1440,0L1392,0C1344,0,1248,0,1152,0C1056,0,960,0,864,0C768,0,672,0,576,0C480,0,384,0,288,0C192,0,96,0,48,0L0,0Z">
    <animate attributeName="d" dur="10s" repeatCount="indefinite" values="
      M0,64L48,90.7C96,117,192,171,288,181.3C384,192,480,160,576,154.7C672,149,768,171,864,181.3C960,192,1056,192,1152,165.3C1248,139,1344,85,1392,58.7L1440,32L1440,0L0,0Z;
      M0,128L48,133.3C96,139,192,149,288,154.7C384,160,480,160,576,149.3C672,139,768,117,864,106.7C960,96,1056,96,1152,117.3C1248,139,1344,181,1392,202.7L1440,224L1440,0L0,0Z;
      M0,64L48,90.7C96,117,192,171,288,181.3C384,192,480,160,576,154.7C672,149,768,171,864,181.3C960,192,1056,192,1152,165.3C1248,139,1344,85,1392,58.7L1440,32L1440,0L0,0Z
    " />
  </path>
</svg>